<?xml version="1.0" encoding="utf-8"?>
<!-- Generator: Adobe Illustrator 16.0.0, SVG Export Plug-In . SVG Version: 6.00 Build 0)  -->
<!DOCTYPE svg PUBLIC "-//W3C//DTD SVG 1.1//EN" "http://www.w3.org/Graphics/SVG/1.1/DTD/svg11.dtd">
<svg version="1.1" id="Layer_1" xmlns="http://www.w3.org/2000/svg" xmlns:xlink="http://www.w3.org/1999/xlink" x="0px" y="0px"
	 width="360px" height="45px" viewBox="0 0 360 45" enable-background="new 0 0 360 45" xml:space="preserve">
<g>
	<path fill="#000000" d="M208.523,1.874c2.588,0,4.592,2.077,4.592,4.651c0,2.475-2.004,4.555-4.592,4.555
		c-2.521,0-4.604-2.079-4.604-4.555C203.922,3.951,206.006,1.874,208.523,1.874z M204.822,43.16V15.562h7.473V43.16H204.822z"/>
	<path fill="#000000" d="M222.312,29.354c0,4.998,3.27,7.799,7.082,7.799c3.813,0,5.709-2.521,6.334-4.652l6.563,2.195
		c-1.246,4.591-5.551,9.306-12.897,9.306c-8.142,0-14.535-6.162-14.535-14.646c0-8.52,6.285-14.635,14.299-14.635
		c7.52,0,11.781,4.653,12.967,9.315l-6.682,2.236c-0.666-2.301-2.408-4.651-6.113-4.651
		C225.521,21.621,222.312,24.361,222.312,29.354z"/>
	<path fill="#000000" d="M256.637,15.562h5.557v6.619h-5.557v11.547c0,2.412,1.123,3.205,3.254,3.205c0.9,0,1.914-0.107,2.303-0.232
		v6.18c-0.67,0.279-2.022,0.669-4.202,0.669c-5.4,0-8.763-3.188-8.763-8.528V22.183h-4.998v-6.62h1.4
		c2.928,0,4.266-1.908,4.266-4.374V7.321h6.738L256.637,15.562L256.637,15.562z"/>
	<path fill="#000000" d="M269.219,1.874c2.584,0,4.611,2.077,4.611,4.651c0,2.475-2.027,4.555-4.611,4.555
		c-2.52,0-4.604-2.079-4.604-4.555C264.613,3.951,266.699,1.874,269.219,1.874z M265.516,43.16V15.562h7.455V43.16H265.516z"/>
	<path fill="#000000" d="M305.967,29.354c0,8.483-6.227,14.646-14.475,14.646c-8.246,0-14.475-6.162-14.475-14.646
		c0-8.519,6.229-14.635,14.475-14.635C299.74,14.72,305.967,20.837,305.967,29.354z M298.514,29.354
		c0-5.211-3.359-7.849-7.021-7.849c-3.642,0-7.004,2.638-7.004,7.849c0,5.168,3.362,7.86,7.004,7.86
		C295.152,37.216,298.514,34.566,298.514,29.354z"/>
	<path fill="#000000" d="M316.174,43.16h-7.455V15.562h7.236v3.423c1.68-2.864,4.982-4.155,7.951-4.155
		c6.85,0,9.994,4.887,9.994,10.945V43.16h-7.476V27.055c0-3.08-1.508-5.495-5.086-5.495c-3.254,0-5.166,2.521-5.166,5.728
		L316.174,43.16L316.174,43.16z"/>
	<path fill="#000000" d="M343.188,34.07c0.176,2.193,1.793,4.203,5.045,4.203c2.478,0,3.644-1.295,3.644-2.739
		c0-1.244-0.838-2.241-2.974-2.693l-3.645-0.838c-5.318-1.185-7.732-4.374-7.732-8.251c0-4.938,4.375-9.032,10.32-9.032
		c7.842,0,10.488,4.997,10.814,7.968l-6.225,1.391c-0.222-1.615-1.398-3.693-4.545-3.693c-1.961,0-3.533,1.173-3.533,2.746
		c0,1.354,1.016,2.194,2.537,2.478l3.92,0.839c5.434,1.122,8.186,4.419,8.186,8.467c0,4.479-3.469,9.089-10.705,9.089
		c-8.312,0-11.172-5.385-11.5-8.529L343.188,34.07z"/>
	<path fill="#000000" d="M199.191,7.777c1.262,0,2.004,0.173,2.418,0.286V1.61c-0.635-0.284-2.18-0.577-3.81-0.577
		c-6.271,0-10.312,4.147-10.312,10.543v3.23h-4.727v6.57h3.223h1.504h0.035V33.1c0,2.48-1.135,3.286-3.332,3.286
		c-0.916,0-1.957-0.108-2.371-0.223v6.334c0.695,0.285,2.084,0.694,4.326,0.694c5.533,0,8.996-3.284,8.996-8.767v-13.05h0.064h3.119
		h3.279v-6.569h-6.398v-3.112C195.211,8.528,197.453,7.777,199.191,7.777z"/>
	<path fill="#000000" d="M53.389,36.662c-1.94,2.348-3.252,3.848-3.953,4.51c-1.815,1.775-3.525,2.655-5.131,2.655
		c-1.722,0-2.592-0.776-2.592-2.345c0-1.358,0.454-3.809,1.361-7.346c-3.297,4.065-5.103,6.258-5.435,6.543
		c-2.305,2.191-4.858,3.278-7.657,3.278c-2.015,0-3.601-0.769-4.755-2.297c-1.067-1.361-1.603-3.08-1.603-5.181
		c0-4.728,1.898-9.481,5.679-14.263c3.988-5.105,8.299-7.658,12.903-7.658c2.675,0,4.414,1.172,5.189,3.518l0.615-2.963
		c1.567-0.206,2.947-0.395,4.138-0.556l0.558,0.179c-4.12,15.562-6.171,23.773-6.171,24.645c0,0.701,0.282,1.051,0.861,1.051
		c0.538,0,1.463-0.662,2.776-1.983c0.823-0.814,1.645-1.656,2.47-2.524L53.389,36.662z M46.167,20.054
		c0-2.675-1.38-4.009-4.141-4.009c-3.21,0-6.236,2.647-9.083,7.961c-2.505,4.688-3.76,8.835-3.76,12.409
		c0,1.153,0.367,2.14,1.104,2.969c0.747,0.813,1.693,1.229,2.846,1.229c3.253,0,6.322-2.653,9.198-7.969
		C44.88,27.919,46.167,23.725,46.167,20.054z"/>
	<path fill="#000000" d="M71.11,43.764c-4.245,0-7.632-1.328-10.166-3.982c-2.525-2.657-3.794-6.083-3.794-10.28
		c0-4.353,1.339-7.907,4.015-10.65c2.675-2.73,6.173-4.108,10.495-4.108c0.785,0,1.951,0.229,3.491,0.683
		c1.543,0.454,2.708,0.681,3.485,0.681c0.869,0,1.398-0.453,1.616-1.363h1.474l0.369,9.889h-1.607
		c-1.315-5.065-4.179-7.599-8.583-7.599c-3.128,0-5.531,1.276-7.22,3.826c-1.44,2.187-2.158,4.964-2.158,8.347
		c0,3.441,0.74,6.241,2.222,8.396c1.72,2.459,4.234,3.703,7.532,3.703c3.29,0,6.382-1.438,9.256-4.328l1.172,1.229
		C79.875,41.909,76.004,43.764,71.11,43.764z"/>
	<path fill="#000000" d="M108.835,22.955c-0.456-2.173-1.05-3.601-1.795-4.254c-0.738-0.659-2.137-0.992-4.196-0.992h-2.167V38.4
		c0,1.437,0.274,2.346,0.804,2.705c0.536,0.377,1.586,0.584,3.147,0.621v1.428h-12.59v-1.428c1.277-0.037,2.164-0.168,2.655-0.375
		c0.786-0.322,1.171-0.996,1.171-2.033V17.709h-2.841c-1.81,0-3.064,0.436-3.767,1.297c-0.574,0.66-1.066,1.977-1.48,3.95h-1.597
		l0.304-7.589h23.646l0.304,7.589L108.835,22.955L108.835,22.955z"/>
	<path fill="#000000" d="M124.461,43.764c-0.747,0-1.763-0.226-3.059-0.705c-1.304-0.48-2.301-0.707-2.999-0.707
		c-0.654,0-0.987,0.455-0.987,1.359h-1.539l-1.305-9.395h1.606c1.938,4.897,4.615,7.347,8.027,7.347c1.322,0,2.408-0.396,3.27-1.196
		c0.87-0.804,1.304-1.857,1.304-3.182c0-1.93-1.339-3.746-4.014-5.443c-3.624-2.252-5.582-3.496-5.861-3.703
		c-2.024-1.723-3.027-3.756-3.027-6.106c0-2.184,0.718-3.94,2.155-5.28c1.436-1.333,3.232-2.011,5.371-2.011
		c0.708,0,1.69,0.243,2.966,0.716c1.278,0.475,2.243,0.714,2.901,0.714c0.576,0,0.929-0.475,1.05-1.429h1.417l0.991,9.396H131
		c-0.333-1.938-1.113-3.562-2.354-4.887c-1.353-1.477-2.94-2.222-4.745-2.222c-1.119,0-2.043,0.316-2.781,0.96
		c-0.745,0.632-1.114,1.486-1.114,2.556c0,1.775,1.398,3.526,4.197,5.248c3.62,2.188,5.683,3.485,6.181,3.897
		c2.139,1.802,3.203,3.927,3.203,6.361c0,2.424-0.943,4.354-2.834,5.807C129.027,43.128,126.926,43.764,124.461,43.764z"/>
	<path fill="#000000" d="M26.587,1.945c-0.818-0.634-2.028-0.948-3.645-0.948c-3.155,0-5.794,1.259-7.904,3.776
		c-2.102,2.519-3.16,5.807-3.16,9.876v1.699H6.59v2.604h5.288V27.7v2.668c0,3.569-0.332,6.183-0.987,7.817
		c-0.662,1.623-1.601,2.465-2.81,2.527c-0.214-0.312-0.486-0.709-0.788-1.227c-0.31-0.496-0.643-0.95-1-1.358
		c-0.365-0.394-0.762-0.707-1.185-0.944c-0.422-0.238-0.914-0.352-1.474-0.352c-0.889,0-1.55,0.277-1.987,0.841
		C1.221,38.232,1,38.927,1,39.736c0,0.904,0.406,1.676,1.222,2.306c0.81,0.631,2.026,0.944,3.636,0.944
		c3.164,0,5.803-1.258,7.907-3.775c2.11-2.521,3.161-5.807,3.161-9.865v-1.646V18.95h6.888v-2.601h-6.888v-2.73
		c0-3.579,0.33-6.183,0.992-7.812c0.654-1.629,1.596-2.478,2.803-2.532c0.223,0.311,0.484,0.716,0.797,1.223
		c0.303,0.508,0.635,0.96,0.999,1.358c0.357,0.401,0.755,0.717,1.176,0.947c0.432,0.239,0.923,0.352,1.483,0.352
		c0.887,0,1.542-0.28,1.977-0.84c0.436-0.562,0.659-1.245,0.659-2.064C27.803,3.345,27.398,2.574,26.587,1.945z"/>
	<path fill="#000000" d="M155.383,43.79c2.539,0,4.86-1.043,7.08-3.179l0.389-0.379l2.87,3.037h6.676l-17.447-18.332
		c-1.068-1.072-1.64-2.125-1.64-3.037c0-1.555,0.517-2.711,1.568-3.546c0.11-0.071,0.685-0.417,1.38-0.417
		c0.54,0,1.507,0.224,1.943,1.705c0.03,0.129,0.036,0.183,0.052,0.246l-0.478,0.268l0.494-0.155l0.002,0.011l0.016-0.011
		l0.036,0.115c0.349,0.968,1.272,1.626,2.291,1.626c1.342,0,2.441-1.095,2.441-2.442c0-0.661-0.271-1.276-0.733-1.736
		c-1.46-1.797-3.652-2.758-6.234-2.758c-3.713,0-7.671,2.536-7.671,7.251c0,2.502,1.744,4.637,3.054,6.033l0.416,0.429l-0.438,0.41
		c-2.762,2.096-4.484,4.062-4.484,7.409C146.963,39.948,149.916,43.79,155.383,43.79z M153.584,31.87l0.828-0.729l5.869,6.364
		l-0.365,0.374c-1.049,1.055-2.815,1.436-4.005,1.436c-0.206,0-0.382-0.006-0.522-0.032c-1.815-0.247-3.01-1.4-3.288-3.175
		C151.929,35.052,152.208,33.305,153.584,31.87z"/>
</g>
</svg>
