<?xml version="1.0" encoding="utf-8"?>
<!-- Generator: Adobe Illustrator 16.0.0, SVG Export Plug-In . SVG Version: 6.00 Build 0)  -->
<!DOCTYPE svg PUBLIC "-//W3C//DTD SVG 1.1//EN" "http://www.w3.org/Graphics/SVG/1.1/DTD/svg11.dtd">
<svg version="1.1" id="fctsfxns-logo-wrapper" xmlns="http://www.w3.org/2000/svg" xmlns:xlink="http://www.w3.org/1999/xlink" x="0px" y="0px"
	 width="360px" height="45px" viewBox="-160 0 360 45" enable-background="new -160 0 360 45" xml:space="preserve">
	<g id="fctsfxns-logo" class="logo">
		<path fill="#FFFFFF" class="fctsfxns-logo-letter fctsfxns-logo-letter-fi" d="M48.522,1.875c2.589,0,4.593,2.077,4.593,4.651c0,2.475-2.004,4.555-4.593,4.555
			c-2.518,0-4.602-2.079-4.602-4.555C43.921,3.952,46.006,1.875,48.522,1.875z M44.822,43.161V15.563h7.473v27.598H44.822z"/>
		<path fill="#FFFFFF" class="fctsfxns-logo-letter fctsfxns-logo-letter-fi" d="M62.311,29.356c0,4.997,3.271,7.798,7.083,7.798c3.814,0,5.709-2.522,6.334-4.653l6.565,2.196
			c-1.247,4.59-5.552,9.305-12.899,9.305c-8.14,0-14.536-6.162-14.536-14.646c0-8.519,6.285-14.636,14.3-14.636
			c7.519,0,11.781,4.653,12.966,9.315l-6.681,2.237c-0.667-2.301-2.408-4.652-6.113-4.652C65.521,21.622,62.311,24.363,62.311,29.356
			z"/>
		<path fill="#FFFFFF" class="fctsfxns-logo-letter fctsfxns-logo-letter-fi" d="M96.636,15.563h5.556v6.619h-5.556v11.549c0,2.411,1.123,3.205,3.253,3.205
			c0.902,0,1.915-0.109,2.303-0.234v6.18c-0.67,0.279-2.022,0.669-4.203,0.669c-5.4,0-8.761-3.19-8.761-8.529V22.184H84.23v-6.62h1.4
			c2.927,0,4.266-1.908,4.266-4.374V7.322h6.738L96.636,15.563L96.636,15.563z"/>
		<path fill="#FFFFFF" class="fctsfxns-logo-letter fctsfxns-logo-letter-fi" d="M109.219,1.875c2.583,0,4.61,2.077,4.61,4.651c0,2.475-2.027,4.555-4.61,4.555
			c-2.521,0-4.605-2.079-4.605-4.555C104.613,3.952,106.698,1.875,109.219,1.875z M105.515,43.161V15.563h7.455v27.598H105.515z"/>
		<path fill="#FFFFFF" class="fctsfxns-logo-letter fctsfxns-logo-letter-fi" d="M145.967,29.356c0,8.483-6.227,14.646-14.475,14.646c-8.247,0-14.475-6.162-14.475-14.646
			c0-8.519,6.228-14.636,14.475-14.636C139.74,14.721,145.967,20.838,145.967,29.356z M138.512,29.356
			c0-5.212-3.359-7.849-7.02-7.849c-3.642,0-7.004,2.637-7.004,7.849c0,5.168,3.362,7.86,7.004,7.86
			C135.152,37.217,138.512,34.569,138.512,29.356z"/>
		<path fill="#FFFFFF" class="fctsfxns-logo-letter fctsfxns-logo-letter-fi" d="M156.174,43.161h-7.455V15.563h7.235v3.423c1.68-2.864,4.983-4.155,7.952-4.155
			c6.849,0,9.993,4.887,9.993,10.947v17.383h-7.474V27.055c0-3.08-1.508-5.494-5.086-5.494c-3.254,0-5.166,2.521-5.166,5.728V43.161z
			"/>
		<path fill="#FFFFFF" class="fctsfxns-logo-letter fctsfxns-logo-letter-fi" d="M183.188,34.072c0.176,2.194,1.793,4.203,5.045,4.203c2.476,0,3.641-1.294,3.641-2.74
			c0-1.244-0.837-2.241-2.971-2.693l-3.645-0.838c-5.319-1.184-7.733-4.374-7.733-8.251c0-4.938,4.375-9.032,10.32-9.032
			c7.843,0,10.488,4.997,10.814,7.968l-6.224,1.391c-0.221-1.615-1.399-3.693-4.544-3.693c-1.962,0-3.533,1.173-3.533,2.746
			c0,1.354,1.014,2.194,2.536,2.476l3.92,0.839c5.433,1.122,8.186,4.419,8.186,8.467c0,4.48-3.469,9.089-10.706,9.089
			c-8.313,0-11.172-5.385-11.5-8.529L183.188,34.072z"/>
		<path fill="#FFFFFF" class="fctsfxns-logo-letter fctsfxns-logo-letter-fi" d="M39.191,7.778c1.262,0,2.003,0.173,2.417,0.286V1.611c-0.634-0.284-2.18-0.577-3.808-0.577
			c-6.271,0-10.31,4.147-10.31,10.543v3.23h-4.728v6.57h3.223h1.505h0.034V33.1c0,2.481-1.134,3.287-3.332,3.287
			c-0.915,0-1.956-0.11-2.37-0.223v6.334c0.694,0.285,2.084,0.695,4.326,0.695c5.532,0,8.995-3.285,8.995-8.766V21.377h0.066h3.118
			h3.28v-6.569h-6.398v-3.112C35.211,8.529,37.453,7.778,39.191,7.778z"/>
		<path fill="#FFFFFF" class="fctsfxns-logo-letter fctsfxns-logo-letter-fa" d="M-106.612,36.663c-1.94,2.348-3.252,3.848-3.953,4.51c-1.815,1.775-3.525,2.655-5.131,2.655
			c-1.722,0-2.592-0.776-2.592-2.344c0-1.359,0.454-3.808,1.361-7.345c-3.297,4.065-5.103,6.257-5.435,6.542
			c-2.305,2.192-4.858,3.279-7.657,3.279c-2.015,0-3.601-0.768-4.755-2.297c-1.067-1.361-1.603-3.08-1.603-5.18
			c0-4.727,1.898-9.482,5.679-14.263c3.988-5.105,8.299-7.658,12.903-7.658c2.675,0,4.414,1.172,5.189,3.518l0.615-2.963
			c1.567-0.206,2.947-0.395,4.138-0.556l0.558,0.179c-4.12,15.562-6.171,23.774-6.171,24.645c0,0.701,0.282,1.05,0.861,1.05
			c0.538,0,1.463-0.661,2.776-1.984c0.823-0.814,1.645-1.656,2.47-2.524L-106.612,36.663z M-113.834,20.055
			c0-2.675-1.38-4.009-4.141-4.009c-3.21,0-6.236,2.647-9.083,7.961c-2.505,4.688-3.76,8.835-3.76,12.409
			c0,1.155,0.367,2.138,1.104,2.969c0.747,0.813,1.693,1.229,2.846,1.229c3.253,0,6.322-2.653,9.198-7.967
			C-115.12,27.92-113.834,23.724-113.834,20.055z"/>
		<path fill="#FFFFFF" class="fctsfxns-logo-letter fctsfxns-logo-letter-fa" d="M-88.89,43.764c-4.245,0-7.632-1.328-10.166-3.983c-2.525-2.657-3.794-6.083-3.794-10.28
			c0-4.353,1.339-7.907,4.015-10.65c2.675-2.73,6.173-4.108,10.495-4.108c0.785,0,1.951,0.229,3.491,0.683
			c1.543,0.454,2.708,0.681,3.485,0.681c0.869,0,1.398-0.453,1.616-1.363h1.474l0.369,9.889h-1.607
			c-1.315-5.065-4.179-7.599-8.583-7.599c-3.128,0-5.531,1.276-7.22,3.826c-1.44,2.187-2.158,4.964-2.158,8.347
			c0,3.442,0.74,6.241,2.222,8.396c1.72,2.46,4.234,3.703,7.532,3.703c3.29,0,6.382-1.437,9.256-4.327l1.172,1.229
			C-80.126,41.91-83.996,43.764-88.89,43.764z"/>
		<path fill="#FFFFFF" class="fctsfxns-logo-letter fctsfxns-logo-letter-fa" d="M-51.165,22.956c-0.456-2.173-1.05-3.601-1.795-4.254c-0.738-0.659-2.137-0.992-4.196-0.992h-2.167v20.692
			c0,1.436,0.274,2.345,0.804,2.706c0.536,0.376,1.586,0.583,3.147,0.621v1.427h-12.591v-1.427c1.277-0.037,2.164-0.169,2.655-0.376
			c0.786-0.322,1.171-0.995,1.171-2.033V17.71h-2.841c-1.81,0-3.064,0.436-3.767,1.297c-0.574,0.66-1.066,1.977-1.48,3.95h-1.597
			l0.304-7.589h23.646l0.304,7.589L-51.165,22.956L-51.165,22.956z"/>
		<path fill="#FFFFFF" class="fctsfxns-logo-letter fctsfxns-logo-letter-fa" d="M-35.539,43.764c-0.747,0-1.763-0.225-3.059-0.705c-1.304-0.481-2.301-0.707-2.999-0.707
			c-0.654,0-0.987,0.455-0.987,1.36h-1.539l-1.305-9.393h1.606c1.938,4.897,4.615,7.345,8.027,7.345c1.322,0,2.408-0.396,3.27-1.196
			c0.87-0.804,1.304-1.858,1.304-3.182c0-1.929-1.339-3.746-4.014-5.443c-3.624-2.252-5.582-3.498-5.861-3.705
			c-2.024-1.721-3.027-3.754-3.027-6.106c0-2.184,0.718-3.94,2.155-5.28c1.436-1.333,3.232-2.011,5.371-2.011
			c0.708,0,1.69,0.243,2.966,0.716c1.278,0.475,2.243,0.714,2.901,0.714c0.576,0,0.929-0.475,1.05-1.429h1.417l0.991,9.396h-1.728
			c-0.333-1.938-1.113-3.562-2.354-4.885c-1.353-1.477-2.94-2.222-4.745-2.222c-1.119,0-2.043,0.316-2.781,0.96
			c-0.745,0.632-1.114,1.486-1.114,2.556c0,1.775,1.398,3.526,4.197,5.248c3.62,2.19,5.683,3.486,6.181,3.899
			c2.139,1.8,3.203,3.925,3.203,6.361c0,2.423-0.943,4.354-2.834,5.806C-30.973,43.129-33.074,43.764-35.539,43.764z"/>
		<path fill="#FFFFFF" class="fctsfxns-logo-letter fctsfxns-logo-letter-fa" d="M-133.413,1.946c-0.818-0.634-2.028-0.948-3.645-0.948c-3.155,0-5.794,1.259-7.904,3.776
			c-2.102,2.519-3.16,5.807-3.16,9.876v1.699h-5.288v2.604h5.288v8.748v2.668c0,3.571-0.332,6.183-0.987,7.819
			c-0.662,1.622-1.601,2.465-2.81,2.527c-0.214-0.312-0.486-0.709-0.788-1.226c-0.31-0.497-0.643-0.951-1-1.359
			c-0.365-0.393-0.762-0.707-1.185-0.944c-0.422-0.239-0.914-0.352-1.474-0.352c-0.889,0-1.55,0.278-1.987,0.841
			c-0.427,0.56-0.648,1.253-0.648,2.063c0,0.905,0.406,1.675,1.222,2.305c0.81,0.631,2.026,0.946,3.636,0.946
			c3.164,0,5.803-1.259,7.907-3.777c2.11-2.52,3.161-5.806,3.161-9.867v-1.646v-8.748h6.888V16.35h-6.888v-2.73
			c0-3.579,0.33-6.183,0.992-7.812c0.654-1.629,1.596-2.478,2.803-2.532c0.223,0.311,0.484,0.716,0.797,1.223
			c0.303,0.508,0.635,0.96,0.999,1.358c0.357,0.401,0.755,0.717,1.176,0.947c0.432,0.239,0.923,0.352,1.483,0.352
			c0.887,0,1.542-0.28,1.977-0.84c0.436-0.562,0.659-1.245,0.659-2.064C-132.197,3.346-132.602,2.575-133.413,1.946z"/>
		<path fill="#FFFFFF" class="fctsfxns-logo-letter fctsfxns-logo-letter-and" d="M-4.617,43.791c2.539,0,4.86-1.043,7.08-3.178l0.389-0.379l2.87,3.038h6.676L-5.049,24.939
			c-1.068-1.073-1.64-2.125-1.64-3.036c0-1.555,0.517-2.711,1.568-3.546c0.11-0.071,0.685-0.417,1.38-0.417
			c0.54,0,1.507,0.224,1.943,1.705c0.03,0.129,0.036,0.183,0.052,0.246l-0.478,0.268l0.494-0.155l0.002,0.011l0.016-0.011
			l0.036,0.115c0.349,0.968,1.272,1.626,2.291,1.626c1.342,0,2.441-1.095,2.441-2.442c0-0.661-0.271-1.276-0.733-1.736
			c-1.46-1.797-3.652-2.758-6.234-2.758c-3.713,0-7.671,2.536-7.671,7.251c0,2.503,1.744,4.638,3.054,6.033l0.416,0.429l-0.438,0.409
			c-2.762,2.097-4.484,4.062-4.484,7.41C-13.037,39.949-10.085,43.791-4.617,43.791z M-6.416,31.871l0.828-0.73l5.869,6.365
			l-0.365,0.374c-1.049,1.054-2.815,1.435-4.005,1.435c-0.206,0-0.382-0.007-0.522-0.033c-1.815-0.247-3.01-1.4-3.288-3.174
			C-8.072,35.053-7.792,33.305-6.416,31.871z"/>
	</g>
</svg>
